<svg width="175" height="68" viewBox="0 0 175 68" fill="none" xmlns="http://www.w3.org/2000/svg">
<g filter="url(#filter0_d_203_2441)">
<circle cx="34" cy="26" r="18" fill="white"/>
<g filter="url(#filter1_d_203_2441)">
<circle cx="33.9999" cy="26" r="9.69231" fill="url(#paint0_radial_203_2441)"/>
</g>
</g>
<path d="M69.424 30.85H62.599L61.297 34H57.811L64.363 19.3H67.723L74.296 34H70.726L69.424 30.85ZM68.353 28.267L66.022 22.639L63.691 28.267H68.353ZM82.7746 33.454C82.4526 33.692 82.0536 33.874 81.5776 34C81.1156 34.112 80.6256 34.168 80.1076 34.168C78.7636 34.168 77.7206 33.825 76.9786 33.139C76.2506 32.453 75.8866 31.445 75.8866 30.115V25.474H74.1436V22.954H75.8866V20.203H79.1626V22.954H81.9766V25.474H79.1626V30.073C79.1626 30.549 79.2816 30.92 79.5196 31.186C79.7716 31.438 80.1216 31.564 80.5696 31.564C81.0876 31.564 81.5286 31.424 81.8926 31.144L82.7746 33.454ZM89.6409 34.168C88.4509 34.168 87.3799 33.923 86.4279 33.433C85.4899 32.929 84.7549 32.236 84.2229 31.354C83.6909 30.472 83.4249 29.471 83.4249 28.351C83.4249 27.231 83.6909 26.23 84.2229 25.348C84.7549 24.466 85.4899 23.78 86.4279 23.29C87.3799 22.786 88.4509 22.534 89.6409 22.534C90.8309 22.534 91.8949 22.786 92.8329 23.29C93.7709 23.78 94.5059 24.466 95.0379 25.348C95.5699 26.23 95.8359 27.231 95.8359 28.351C95.8359 29.471 95.5699 30.472 95.0379 31.354C94.5059 32.236 93.7709 32.929 92.8329 33.433C91.8949 33.923 90.8309 34.168 89.6409 34.168ZM89.6409 31.48C90.4809 31.48 91.1669 31.2 91.6989 30.64C92.2449 30.066 92.5179 29.303 92.5179 28.351C92.5179 27.399 92.2449 26.643 91.6989 26.083C91.1669 25.509 90.4809 25.222 89.6409 25.222C88.8009 25.222 88.1079 25.509 87.5619 26.083C87.0159 26.643 86.7429 27.399 86.7429 28.351C86.7429 29.303 87.0159 30.066 87.5619 30.64C88.1079 31.2 88.8009 31.48 89.6409 31.48ZM112.495 22.534C113.909 22.534 115.029 22.954 115.855 23.794C116.695 24.62 117.115 25.866 117.115 27.532V34H113.839V28.036C113.839 27.14 113.65 26.475 113.272 26.041C112.908 25.593 112.383 25.369 111.697 25.369C110.927 25.369 110.318 25.621 109.87 26.125C109.422 26.615 109.198 27.35 109.198 28.33V34H105.922V28.036C105.922 26.258 105.208 25.369 103.78 25.369C103.024 25.369 102.422 25.621 101.974 26.125C101.526 26.615 101.302 27.35 101.302 28.33V34H98.0257V22.702H101.155V24.004C101.575 23.528 102.086 23.164 102.688 22.912C103.304 22.66 103.976 22.534 104.704 22.534C105.502 22.534 106.223 22.695 106.867 23.017C107.511 23.325 108.029 23.78 108.421 24.382C108.883 23.794 109.464 23.339 110.164 23.017C110.878 22.695 111.655 22.534 112.495 22.534ZM130.635 26.377C131.489 26.615 132.161 27.049 132.651 27.679C133.141 28.295 133.386 29.079 133.386 30.031C133.386 31.305 132.903 32.285 131.937 32.971C130.985 33.657 129.592 34 127.758 34H120.744V19.3H127.338C129.018 19.3 130.313 19.636 131.223 20.308C132.147 20.98 132.609 21.911 132.609 23.101C132.609 23.871 132.427 24.536 132.063 25.096C131.713 25.656 131.237 26.083 130.635 26.377ZM122.844 21.001V25.705H127.149C128.227 25.705 129.053 25.509 129.627 25.117C130.215 24.711 130.509 24.123 130.509 23.353C130.509 22.583 130.215 22.002 129.627 21.61C129.053 21.204 128.227 21.001 127.149 21.001H122.844ZM127.674 32.299C128.864 32.299 129.76 32.103 130.362 31.711C130.964 31.319 131.265 30.703 131.265 29.863C131.265 28.225 130.068 27.406 127.674 27.406H122.844V32.299H127.674ZM140.397 22.765C141.937 22.765 143.113 23.143 143.925 23.899C144.751 24.655 145.164 25.782 145.164 27.28V34H143.253V32.53C142.917 33.048 142.434 33.447 141.804 33.727C141.188 33.993 140.453 34.126 139.599 34.126C138.353 34.126 137.352 33.825 136.596 33.223C135.854 32.621 135.483 31.83 135.483 30.85C135.483 29.87 135.84 29.086 136.554 28.498C137.268 27.896 138.402 27.595 139.956 27.595H143.148V27.196C143.148 26.328 142.896 25.663 142.392 25.201C141.888 24.739 141.146 24.508 140.166 24.508C139.508 24.508 138.864 24.62 138.234 24.844C137.604 25.054 137.072 25.341 136.638 25.705L135.798 24.193C136.372 23.731 137.058 23.381 137.856 23.143C138.654 22.891 139.501 22.765 140.397 22.765ZM139.935 32.572C140.705 32.572 141.37 32.404 141.93 32.068C142.49 31.718 142.896 31.228 143.148 30.598V29.044H140.04C138.332 29.044 137.478 29.618 137.478 30.766C137.478 31.326 137.695 31.767 138.129 32.089C138.563 32.411 139.165 32.572 139.935 32.572ZM154.837 22.765C156.251 22.765 157.371 23.178 158.197 24.004C159.037 24.816 159.457 26.013 159.457 27.595V34H157.441V27.826C157.441 26.748 157.182 25.936 156.664 25.39C156.146 24.844 155.404 24.571 154.438 24.571C153.346 24.571 152.485 24.893 151.855 25.537C151.225 26.167 150.91 27.077 150.91 28.267V34H148.894V22.87H150.826V24.55C151.232 23.976 151.778 23.535 152.464 23.227C153.164 22.919 153.955 22.765 154.837 22.765ZM167.514 28.813L165.204 30.955V34H163.188V18.418H165.204V28.414L171.273 22.87H173.709L169.026 27.469L174.171 34H171.693L167.514 28.813Z" fill="#1D2027"/>
<defs>
<filter id="filter0_d_203_2441" x="0" y="0" width="68" height="68" filterUnits="userSpaceOnUse" color-interpolation-filters="sRGB">
<feFlood flood-opacity="0" result="BackgroundImageFix"/>
<feColorMatrix in="SourceAlpha" type="matrix" values="0 0 0 0 0 0 0 0 0 0 0 0 0 0 0 0 0 0 127 0" result="hardAlpha"/>
<feOffset dy="8"/>
<feGaussianBlur stdDeviation="8"/>
<feComposite in2="hardAlpha" operator="out"/>
<feColorMatrix type="matrix" values="0 0 0 0 0.0966667 0 0 0 0 0.4 0 0 0 0 0.217169 0 0 0 0.12 0"/>
<feBlend mode="normal" in2="BackgroundImageFix" result="effect1_dropShadow_203_2441"/>
<feBlend mode="normal" in="SourceGraphic" in2="effect1_dropShadow_203_2441" result="shape"/>
</filter>
<filter id="filter1_d_203_2441" x="12.3076" y="10.3077" width="43.3845" height="43.3846" filterUnits="userSpaceOnUse" color-interpolation-filters="sRGB">
<feFlood flood-opacity="0" result="BackgroundImageFix"/>
<feColorMatrix in="SourceAlpha" type="matrix" values="0 0 0 0 0 0 0 0 0 0 0 0 0 0 0 0 0 0 127 0" result="hardAlpha"/>
<feOffset dy="6"/>
<feGaussianBlur stdDeviation="6"/>
<feComposite in2="hardAlpha" operator="out"/>
<feColorMatrix type="matrix" values="0 0 0 0 0.483333 0 0 0 0 0.483333 0 0 0 0 0.483333 0 0 0 0.2 0"/>
<feBlend mode="normal" in2="BackgroundImageFix" result="effect1_dropShadow_203_2441"/>
<feBlend mode="normal" in="SourceGraphic" in2="effect1_dropShadow_203_2441" result="shape"/>
</filter>
<radialGradient id="paint0_radial_203_2441" cx="0" cy="0" r="1" gradientUnits="userSpaceOnUse" gradientTransform="translate(43.9625 35.9) rotate(-137.028) scale(21.7855 25.4557)">
<stop stop-color="#13C93E"/>
<stop offset="1" stop-color="#ADE446"/>
</radialGradient>
</defs>
</svg>
